# xmcd CD database file
#
# Track frame offsets:
#	150
#	9960
#	22149
#	33824
#	46883
#	59191
#	71399
#	82694
#	94295
#	106488
#	118014
#	131137
#	142789
#	153222
#	167512
#	183668
#	193896
#
# Disc length: 2763 seconds
#
# Revision: 0
# Processed by: cddbd v1.5.2PL0 Copyright (c) Steve Scherf et al.
# Submitted via: CDex 1.70beta2
#
DISCID=e00ac911
DTITLE=Carious - Country Roots - CD 2
DYEAR=2007
DGENRE=Country Classics
TTITLE0=Gene Autry - Old Buckaroo
TTITLE1=Roy Acuff - I Saw The Light
TTITLE2=Bill Haley And His Comets - Happy Baby
TTITLE3=Tex Williams - Artistry In Western Swing
TTITLE4=The Carter Family - I'm Working On A Building
TTITLE5=Floyd Tillman - I Love You So Much It Hurts
TTITLE6=Kitty Wells And Red Foley - Make Believe
TTITLE7=Hank Williams - My Son Calls Another Man Daddy
TTITLE8=Merle Travis - Missouri
TTITLE9=Roy Acuff - Poor Hobo
TTITLE10=Hank Williams - Hey Good Lookin'
TTITLE11=Bob Wills - New San Antonio Rose
TTITLE12=Gene Autry - Amapola
TTITLE13=Red Foley And Ernest Tubb - To Old To Cut The Mustard
TTITLE14=The Carter Family - Motherless Children
TTITLE15=Gene Autry - Down In The Valley
TTITLE16=The Carter Family - Don't Forget This Song
EXTD=YEAR: 2007
EXTT0=
EXTT1=
EXTT2=
EXTT3=
EXTT4=
EXTT5=
EXTT6=
EXTT7=
EXTT8=
EXTT9=
EXTT10=
EXTT11=
EXTT12=
EXTT13=
EXTT14=
EXTT15=
EXTT16=
PLAYORDER=
